# xmcd
#
# Track frame offsets:
#	150
#	28743
#	46401
#	73584
#	87391
#	103640
#	125445
#	139882
#	158277
#	179969
#	199657
#	211607
#	229395
#	244403
#	265213
#
# Disc length: 3810 seconds
#
# Revision: 2
# Processed by: cddbd v1.5.2PL0 Copyright (c) Steve Scherf et al.
# Submitted via: dBpowerAMP V4.0
#
DISCID=da0ee00f
DTITLE=Various Artist - Diana Krall - Music That Matters To Her
DYEAR=2004
DGENRE=Jazz
TTITLE0=Elton John - Burn Down The Mission
TTITLE1=Lucinda Williams - Blue
TTITLE2=Joni Mitchell - Amelia
TTITLE3=Ernestine Anderson - I'm Walkin'
TTITLE4=Count Basie - Splanky
TTITLE5=Oscar Peterson - Night Train
TTITLE6=Bill Evans Trio - Peri's Scope
TTITLE7=Stan Getz, Jimmy Rowles - I'll Never Be the Same
TTITLE8=Carmen McRae - The Ballad of Thelonious Monk
TTITLE9=Elvis Costello, The Attractions - Almost Ideal Eyes
TTITLE10=Randy Newman - Cowboy
TTITLE11=Duke Ellington - Lotus Blossom
TTITLE12=Mahalia Jackson - It Don't Cost Very Much
TTITLE13=The Band, The Staple Singers - The Weight
TTITLE14=Robert Merrill, Jussi Bjoerling - Au fond du temple saint
EXTD=
EXTT0=
EXTT1=
EXTT2=
EXTT3=
EXTT4=
EXTT5=
EXTT6=
EXTT7=
EXTT8=
EXTT9=
EXTT10=
EXTT11=
EXTT12=
EXTT13=
EXTT14=
PLAYORDER=
